<?xml version="1.0" encoding="utf-8"?>
<!-- Generator: Adobe Illustrator 28.2.0, SVG Export Plug-In . SVG Version: 6.00 Build 0)  -->
<svg version="1.1" id="Layer_1" xmlns="http://www.w3.org/2000/svg" xmlns:xlink="http://www.w3.org/1999/xlink" x="0px" y="0px"
	 viewBox="0 0 1640 660" style="enable-background:new 0 0 1640 660;" xml:space="preserve">
<style type="text/css">
	.st0{fill:#FFFFFF;}
</style>
<path class="st0" d="M472.8,145.4c-4.4,18-8.5,36.1-13.2,54c-16.2,61-36.2,120.7-68.8,175.2c-50.5,84.3-118.4,147.5-216.2,172.2
	c-47.1,11.9-94.2,11.7-139.5-9.1c-10.6-4.9-20.3-11.3-28-20.3c-3.2-3.8-6-8-6.5-13.1c-0.4-3.8-1.7-8.3,1.9-10.9
	c3.7-2.7,6.3,1.5,9.1,3.1c20.2,11.6,42,18,65.1,19.8c100.2,7.7,180.8-32.8,248.2-103.3c53-55.4,83.5-123.7,107.6-195.3
	c10.9-32.3,20.6-65,27.2-98.6c3.7-19.1-8.5-33.2-28.4-34.2c-18.3-0.9-33.4,6.9-47.6,17.4c-2.5,1.9-5,3.9-7.5,5.9
	c-2.9,2.3-5.3,6.4-9.5,1.5c-3.8-4.6,0-7,2.5-9.7c12.3-12.9,26.7-23.3,43.6-28.9c21.1-7,42.8-9.6,63.9,0.2
	c24.8,11.5,34.1,33.9,37.9,58.6c5.6,36.1,1.3,72.4-0.9,108.6c-0.2,3-2.4,7.3,0.5,8.5c4.8,2,5.3-3.5,6.5-6.3
	c19-40.5,38.7-80.5,64-117.5c12-17.5,25.3-33.9,43-46.2c11.9-8.3,25.1-13.5,39.7-10.5c26.1,5.3,37,25.9,30.9,56.4
	c-6.9,34.3-20.7,66.4-31.9,99.3c-10,29.6-21.2,58.9-27.2,89.7c-1.3,6.6-1.6,13.3-1.5,20c0.5,20.5,11.3,29.2,31.7,25.9
	c3.5-0.6,8.9-4.9,10.5,1.7c1.3,5.5-3.6,8-8.1,9.5c-32.5,10.9-73.4,1.2-74.7-48.5c-0.7-27.6,8.5-53.3,16.9-79
	c12.8-39.4,29.4-77.6,41-117.4c1.9-6.4,3.6-12.9,3.3-19.7c-0.5-10.7-8.3-15.7-18.3-11.8c-9.1,3.6-15.9,10.3-22.2,17.5
	c-22.4,25.3-38.1,54.9-53.8,84.4c-21,39.4-39.4,80.1-56.5,121.4c-2.5,6.1-4.5,13.3-13.5,12.3c-8.8-1-11.5-8.2-12.9-14.9
	c-3.5-16.5-4.8-33.4-5-50.4C475.9,223.6,476.5,184.5,472.8,145.4L472.8,145.4z"/>
<path class="st0" d="M1535.9,255.2c-2.6-1.6-4.6-1.4-6.2,1.2c-1.9,3-3.6,6.1-5.7,8.9c-15.5,21.3-34.3,38.5-60.7,44.6
	c-30.9,7.1-51.2-10.3-48.9-41.2c0.3-4.8,1.6-6.3,6.7-6.6c15.1-0.9,30.2-2.8,44.5-8.2c19.9-7.5,37.7-17.7,45.6-39.2
	c7.4-20.3,1.2-38.1-16.4-45.1c-9.6-3.8-19.6-5.3-30-3.4c-48.5,8.6-86.2,48.5-91.9,97.4c-0.3,2.4-0.2,5.3-1.6,7
	c-10.5,12.8-21,25.8-36.4,33.1c-15.1,7.2-29.8,3.1-34.6-10.5c-5.2-14.8-2.6-29.9,0.3-44.8c0.6-2.8,3-3.6,5-5
	c41.7-30.2,72.3-69.7,95.8-114.9c7.6-14.7,12.9-30.5,12-47.6c-0.8-13-8.2-20.9-20.9-22.4c-7.5-0.9-14.7,0.5-21.6,3.5
	c-18.7,8.2-32.6,22.1-44.8,37.7c-30.4,38.5-49.5,82.4-61,129.8c-2.7,11.2-1.8,24.1-7.2,33.6c-13.8,24.4-34.5,41.7-63.1,47
	c-25.7,4.8-42.9-9.4-42.7-35.7c0.2-31.6,11.9-59,33.4-82c5.6-6,12.4-10.6,20.5-12.3c10.3-2.2,14.7,1.5,14.9,11.8
	c0.1,6.4-0.8,12.7-3.3,18.6c-1.7,4-5.8,7.8-0.2,11.9c4.9,3.6,9.8,4.9,15.7,1.9c18.8-9.6,21.4-37.2,4.2-49.4
	c-11.1-7.9-23.9-10.3-37.2-8.3c-47.2,7.2-85.2,48-89.4,96.4c-1.8,20.8-16,32-31.5,41.6c-8.8,5.4-16.6,0-17.6-10.6
	c-0.8-9.6,0.7-18.9,3.3-28.2c6.9-24.8,18.1-48,28-71.6c1.7-4.1,6-9.1,0.9-13.5c-4.7-4-10.5-5.9-16.8-4.3c-5.2,1.3-9.7,3.9-13.6,7.7
	c-2.2,2.1-3.6,5.3-7.1,5.8c-5.8-16.4-19.6-23.3-39.2-19.5c-21.1,4.1-38.8,14.4-53.6,29.8c-11.2,11.7-20.4,24.4-27,38.1
	c2,0.8,4.2,1.4,6.7,2c-3.2,1.8-6.3,3.3-9.5,4.4c-5.5,13.3-8.5,27.6-8.5,43.1c0,28.5,19.6,44.9,46.9,40.4
	c10.3-1.7,18.9-7.2,26.9-13.8c9.8-8.2,16.5-19,24.4-28.7c0.3-0.8,0.4-2.1,1.6-1.3c0.4,0.3,0,1.7-0.1,2.6c0.2,2.8,0.3,5.6,0.4,8.4
	c0.9,26.4,21.1,40,45.9,30.6c6.9-2.6,13.2-6.5,18.8-11.5c8.2-7.2,14.8-15.8,22.3-24.9c7.1,21.7,21.4,34.6,43,38.4
	c11.5,2,23.2,1.6,34.7-0.6c28.8-5.5,50-22.9,68-45c3.3,3,2.3,6.8,3,10.1c4.1,18.8,17.4,32.6,34.7,35.5c18.1,3,34-2.6,48.5-13.4
	c11-8.2,19.9-18.6,29.9-29.5c5.1,19.7,16.2,32.8,34.7,39.9c43.8,16.9,118.6-19,130.7-63.1C1540.3,257.9,1538.5,256.7,1535.9,255.2
	L1535.9,255.2z M1454.5,187.9c6.8-6,16-14.5,25-7.1c8.2,6.8,3.7,17.8-0.3,26.4c-11.8,25.8-31,41.9-61.7,45.2
	C1423.4,226.2,1435.3,204.8,1454.5,187.9L1454.5,187.9z M1356.4,106.3c6.7-10.7,13.9-21.2,24.1-29c3.4-2.6,7.3-5.1,11.6-3
	c4.8,2.4,4.9,7.3,4.3,12c-2.8,23.6-14,44-25.6,64c-15.2,26.3-33.7,50.1-55.6,71.2c-2.1,2-5.3,3.7-9.8,5.1
	C1317.5,183.7,1333.1,143.4,1356.4,106.3L1356.4,106.3z M1052.5,199.4c-15.6,31-26.9,64.4-49.2,91.8c-2.7,3.2-5.7,6.2-8.9,8.9
	c-6.5,5.4-14.1,9.4-22.3,5.6c-8.3-3.8-7.8-12.5-8.2-23c5.8-34,20.1-66.1,50.3-89.2c13-9.9,25.6-10.3,35.1-2.9
	C1052.2,193,1054.6,195.3,1052.5,199.4L1052.5,199.4z"/>
<path class="st0" d="M936.2,238c-1,2.1-2,4.2-2.8,6.4c-8.8,3.1-17.3,3.1-25.7-2c-19.5-11.8-10-29.5-7.1-46.6
	c-11.6,4.8-18.7,13.2-25,21.8c-22.7,30.8-40.7,64.1-49.4,101.7c-1.7,7.5-5.8,9.4-12.8,8.4c-13.6-1.9-20.5-10.2-19.2-23.8
	c0.3-2.8,0.4-5.6,0.8-10.1c-5.8,5.8-10.3,10.6-15.2,15.2c-12.1,11.4-25.4,19.9-43,19.3c-18.8-0.6-30.1-11.2-31.3-30
	c-2.1-31.1,7.7-59.7,18.3-88.1c3.2-8.6,7.1-16.9,9.6-25.7c3.5-12.1,14-13.3,29.2-10.3c9.4,1.8,12.2,9.3,8,21.3
	c-8.6,24.9-19.6,48.9-25.5,74.7c-1.9,8.2-3.7,16.5-1.7,25c2,8.7,7.6,12,16.3,10.2c5-1,9.5-3.3,13-6.7c15.2-14.7,29.3-29.7,33.7-52
	c4.6-23.5,14.8-45.4,23.7-67.5c3-7.6,9-9.2,16-9.7c8-0.6,15.6,0.9,21.5,6.8c2.9,2.9,0.1,6.1-1,8.8c-6.7,17.1-13.6,34.1-20.6,51.7
	c5.4,0.4,5.9-3.9,7.6-6.6c11.5-17.8,23.9-34.9,40-48.9c7.2-6.3,15-11.7,24.9-13c9-1.2,17.3,0.5,22.3,8.6c4.8,7.8,4,16.2-0.9,24
	c-2.1,3.3-4.6,6.2-7,9.2C921.9,223,923,232.9,936.2,238L936.2,238z"/>
<path class="st0" d="M794.7,112.4c-0.2,16.1-18.6,36.1-34.4,37.5c-12.5,1.1-22-6.6-23.1-18.9c-1.8-18.5,20.6-40.9,39-38.9
	C789.1,93.5,794.9,99.8,794.7,112.4z"/>
</svg>
