<?xml version="1.0" encoding="UTF-8"?>
<svg xmlns="http://www.w3.org/2000/svg" viewBox="0 0 1640 660" fill="#ffffff">
  <path d="M472.78,145.42c-4.39,17.99-8.47,36.06-13.23,53.96-16.22,61.01-36.17,120.67-68.79,175.15-50.48,84.31-118.41,147.53-216.22,172.18-47.1,11.87-94.21,11.73-139.54-9.1-10.65-4.89-20.32-11.31-27.97-20.35-3.2-3.78-5.96-7.98-6.47-13.07-.37-3.76-1.7-8.28,1.86-10.9,3.73-2.74,6.32,1.53,9.13,3.14,20.19,11.62,42.03,17.99,65.08,19.76,100.21,7.68,180.78-32.82,248.19-103.33,52.98-55.42,83.45-123.74,107.63-195.3,10.93-32.34,20.62-65.04,27.16-98.55,3.74-19.13-8.55-33.18-28.38-34.2-18.31-.93-33.44,6.87-47.56,17.39-2.54,1.89-5,3.9-7.48,5.89-2.87,2.3-5.3,6.44-9.46,1.49-3.83-4.56-.04-7.03,2.49-9.69,12.33-12.95,26.66-23.28,43.62-28.92,21.13-7.02,42.77-9.57,63.88.23,24.76,11.51,34.08,33.95,37.91,58.64,5.59,36.11,1.26,72.4-.93,108.58-.18,3.02-2.39,7.3.45,8.51,4.79,2.04,5.26-3.53,6.55-6.3,18.99-40.46,38.72-80.51,63.98-117.54,11.96-17.54,25.32-33.91,42.96-46.15,11.9-8.26,25.1-13.5,39.74-10.51,26.1,5.33,37.05,25.9,30.94,56.36-6.88,34.29-20.69,66.36-31.86,99.27-10.05,29.61-21.23,58.85-27.25,89.69-1.3,6.64-1.64,13.29-1.47,19.99.51,20.46,11.3,29.16,31.66,25.93,3.55-.56,8.86-4.91,10.5,1.73,1.35,5.48-3.63,7.99-8.07,9.48-32.48,10.92-73.38,1.18-74.69-48.45-.73-27.62,8.52-53.31,16.9-79.04,12.83-39.43,29.39-77.56,41.05-117.41,1.88-6.43,3.64-12.95,3.33-19.68-.49-10.74-8.26-15.74-18.28-11.82-9.11,3.56-15.87,10.35-22.2,17.5-22.38,25.27-38.06,54.86-53.77,84.36-21,39.42-39.41,80.08-56.45,121.37-2.53,6.12-4.46,13.28-13.47,12.28-8.75-.97-11.47-8.25-12.87-14.89-3.5-16.55-4.84-33.43-5.04-50.37-.46-39.12.13-78.26-3.58-117.34Z"/>
  <path d="M1535.86,255.19c-2.63-1.59-4.57-1.42-6.22,1.2-1.87,2.97-3.59,6.06-5.66,8.9-15.53,21.28-34.27,38.51-60.74,44.62-30.93,7.14-51.16-10.34-48.88-41.21.35-4.83,1.6-6.31,6.66-6.62,15.12-.92,30.2-2.81,44.49-8.2,19.92-7.49,37.68-17.66,45.6-39.23,7.45-20.27,1.24-38.06-16.43-45.1-9.56-3.82-19.59-5.28-30.01-3.44-48.46,8.63-86.17,48.5-91.95,97.35-.27,2.39-.21,5.33-1.56,6.99-10.48,12.81-20.97,25.75-36.38,33.15-15.08,7.24-29.82,3.08-34.6-10.53-5.2-14.78-2.63-29.9.27-44.84.55-2.84,3.02-3.61,4.98-5.03,41.68-30.17,72.28-69.72,95.78-114.92,7.61-14.65,12.95-30.51,11.98-47.61-.75-12.97-8.16-20.91-20.91-22.37-7.51-.86-14.7.46-21.63,3.5-18.65,8.19-32.55,22.14-44.85,37.7-30.38,38.47-49.51,82.37-61.01,129.75-2.72,11.19-1.75,24.14-7.16,33.64-13.83,24.35-34.51,41.67-63.07,47.03-25.65,4.82-42.86-9.4-42.69-35.66.2-31.63,11.86-58.96,33.4-82.03,5.6-5.99,12.37-10.61,20.52-12.32,10.32-2.18,14.71,1.48,14.86,11.81.09,6.41-.8,12.67-3.29,18.61-1.67,3.98-5.76,7.83-.16,11.9,4.9,3.55,9.75,4.86,15.69,1.85,18.85-9.57,21.41-37.21,4.15-49.42-11.12-7.87-23.87-10.32-37.2-8.27-47.16,7.21-85.23,48.02-89.43,96.38-1.81,20.83-15.96,32-31.51,41.58-8.81,5.43-16.62-.02-17.56-10.58-.85-9.59.74-18.94,3.33-28.17,6.95-24.8,18.1-47.95,27.97-71.61,1.69-4.05,6.03-9.13.86-13.52-4.68-3.97-10.53-5.9-16.78-4.33-5.16,1.3-9.69,3.93-13.64,7.67-2.18,2.07-3.56,5.3-7.08,5.76-5.79-16.35-19.63-23.31-39.19-19.5-21.07,4.09-38.84,14.38-53.57,29.81-11.18,11.71-20.43,24.35-27.04,38.11,1.96.77,4.17,1.42,6.65,1.97-3.19,1.81-6.35,3.31-9.5,4.43-5.46,13.29-8.48,27.6-8.5,43.11-.02,28.52,19.64,44.92,46.86,40.37,10.33-1.72,18.94-7.16,26.93-13.76,9.84-8.17,16.5-18.97,24.44-28.72.3-.77.42-2.1,1.6-1.27.39.27-.04,1.71-.09,2.61.15,2.81.34,5.61.44,8.42.86,26.42,21.12,39.96,45.94,30.59,6.95-2.63,13.15-6.52,18.8-11.48,8.2-7.19,14.79-15.78,22.34-24.92,7.07,21.73,21.4,34.59,42.97,38.4,11.49,2.03,23.23,1.58,34.74-.63,28.85-5.51,49.98-22.92,68.01-44.98,3.31,2.97,2.26,6.81,2.98,10.13,4.09,18.78,17.38,32.64,34.72,35.49,18.14,2.99,34.04-2.58,48.49-13.35,11.03-8.22,19.94-18.62,29.87-29.53,5.06,19.73,16.17,32.77,34.69,39.91,43.85,16.91,118.55-18.97,130.67-63.08,1.05-3.81-.79-4.95-3.36-6.5ZM1454.48,187.89c6.85-6.03,16.01-14.47,24.96-7.05,8.2,6.8,3.66,17.79-.27,26.38-11.79,25.77-31.01,41.9-61.74,45.18,5.97-26.2,17.87-47.63,37.05-64.51ZM1356.36,106.33c6.72-10.71,13.9-21.18,24.12-29.03,3.43-2.64,7.35-5.08,11.58-2.98,4.79,2.38,4.91,7.32,4.35,11.98-2.8,23.63-14.04,43.96-25.64,64.03-15.2,26.28-33.66,50.12-55.58,71.2q-3.08,2.97-9.78,5.1c12.13-42.93,27.73-83.25,50.95-120.3ZM1052.51,199.45c-15.55,31.03-26.88,64.35-49.17,91.76-2.65,3.25-5.71,6.25-8.93,8.94-6.49,5.42-14.11,9.41-22.31,5.64-8.28-3.81-7.85-12.5-8.19-22.98,5.84-33.97,20.07-66.12,50.26-89.24,12.98-9.94,25.58-10.27,35.06-2.9,3,2.33,5.34,4.67,3.27,8.79Z"/>
  <path d="M936.18,237.99c-1.02,2.11-1.98,4.24-2.85,6.4-8.76,3.11-17.33,3.13-25.74-1.97-19.5-11.82-9.97-29.5-7.12-46.64-11.58,4.82-18.67,13.21-25.02,21.8-22.74,30.8-40.68,64.1-49.42,101.72-1.74,7.51-5.81,9.4-12.85,8.42-13.57-1.88-20.52-10.24-19.23-23.75.26-2.79.43-5.58.77-10.07-5.75,5.77-10.32,10.61-15.15,15.18-12.08,11.41-25.44,19.87-43.03,19.34-18.84-.57-30.07-11.18-31.33-29.95-2.07-31.09,7.69-59.69,18.27-88.13,3.18-8.56,7.09-16.91,9.59-25.66,3.46-12.15,13.95-13.27,29.24-10.27,9.37,1.83,12.2,9.26,8.04,21.32-8.59,24.88-19.61,48.94-25.55,74.73-1.9,8.22-3.67,16.53-1.72,25.03,1.99,8.71,7.56,12.03,16.34,10.2,5.01-1.04,9.51-3.31,12.99-6.68,15.2-14.69,29.3-29.69,33.7-52.02,4.62-23.46,14.76-45.37,23.69-67.53,3.05-7.57,9.04-9.25,15.97-9.73,8-.55,15.58.92,21.46,6.77,2.89,2.88.06,6.05-1.02,8.81-6.7,17.1-13.57,34.12-20.59,51.65,5.44.35,5.89-3.93,7.58-6.55,11.53-17.78,23.86-34.92,39.99-48.91,7.25-6.27,15.02-11.7,24.87-13.02,8.97-1.21,17.31.47,22.26,8.57,4.76,7.79,4.05,16.25-.86,24.01-2.06,3.26-4.58,6.24-7.04,9.22-10.57,12.76-9.4,22.6,3.78,27.71Z"/>
</svg>
